{"accessors":{"accessor_21":{"bufferView":"bufferView_29","byteOffset":0,"byteStride":0,"componentType":5123,"count":2268,"type":"SCALAR"},"accessor_23":{"bufferView":"bufferView_30","byteOffset":0,"byteStride":12,"componentType":5126,"count":442,"max":[0.38,0.38,0.38],"min":[-0.38,-0.38,-0.38],"type":"VEC3"},"accessor_25":{"bufferView":"bufferView_30","byteOffset":5304,"byteStride":12,"componentType":5126,"count":442,"max":[0.894427,0.447214,0.894427],"min":[-0.894427,-1,-0.894427],"type":"VEC3"},"accessor_27":{"bufferView":"bufferView_30","byteOffset":10608,"byteStride":8,"componentType":5126,"count":442,"max":[1,1],"min":[0,0],"type":"VEC2"}},"animations":{},"asset":{"generator":"collada2gltf@","premultipliedAlpha":true,"profile":"WebGL 1.0.2","version":0.8},"bufferViews":{"bufferView_29":{"buffer":"model","byteLength":4536,"byteOffset":0,"target":34963},"bufferView_30":{"buffer":"model","byteLength":14144,"byteOffset":4536,"target":34962}},"buffers":{"model":{"byteLength":18680,"type":"arraybuffer","uri":"data:application/octet-stream;base64,"}},"materials":{"ID4":{"instanceTechnique":{"technique":"technique0","values":{"diffuse":[0.8,0.8,0.8,1],"shininess":64,"specular":[0.2,0.2,0.2,1]}},"name":"Mat"}},"meshes":{"ID7":{"name":"ID7","primitives":[{"attributes":{"NORMAL":"accessor_25","POSITION":"accessor_23","TEXCOORD_0":"accessor_27"},"indices":"accessor_21","material":"ID4","primitive":4}]}},"nodes":{"ID6":{"children":[],"matrix":[4.48966e-11,-4.48966e-11,-1,0,1,2.01571e-21,4.48966e-11,0,0,-1,4.48966e-11,0,0,0,0,1],"meshes":["ID7"],"name":"Cône"}},"programs":{"program_0":{"attributes":["a_normal","a_position"],"fragmentShader":"model0FS","vertexShader":"model0VS"}},"scene":"defaultScene","scenes":{"defaultScene":{"nodes":["ID6"]}},"shaders":{"model0FS":{"type":35632,"uri":"data:text/plain;base64,"},"model0VS":{"type":35633,"uri":"data:text/plain;base64,"}},"skins":{},"techniques":{"technique0":{"parameters":{"diffuse":{"type":35666},"modelViewMatrix":{"semantic":"MODELVIEW","type":35676},"normal":{"semantic":"NORMAL","type":35665},"normalMatrix":{"semantic":"MODELVIEWINVERSETRANSPOSE","type":35675},"position":{"semantic":"POSITION","type":35665},"projectionMatrix":{"semantic":"PROJECTION","type":35676},"shininess":{"type":5126},"specular":{"type":35666}},"pass":"defaultPass","passes":{"defaultPass":{"details":{"commonProfile":{"extras":{"doubleSided":false},"lightingModel":"Blinn","parameters":["diffuse","modelViewMatrix","normalMatrix","projectionMatrix","shininess","specular"]},"type":"COLLADA-1.4.1/commonProfile"},"instanceProgram":{"attributes":{"a_normal":"normal","a_position":"position"},"program":"program_0","uniforms":{"u_diffuse":"diffuse","u_modelViewMatrix":"modelViewMatrix","u_normalMatrix":"normalMatrix","u_projectionMatrix":"projectionMatrix","u_shininess":"shininess","u_specular":"specular"}},"states":{"enable":[2884,2929]}}}}}}