{
    "accessors": {
        "accessor_102": {
            "bufferView": "bufferView_164",
            "byteOffset": 24,
            "byteStride": 0,
            "componentType": 5123,
            "count": 24,
            "type": "SCALAR"
        },
        "accessor_104": {
            "bufferView": "bufferView_165",
            "byteOffset": 256,
            "byteStride": 12,
            "componentType": 5126,
            "count": 16,
            "max": [
                5.022850036621094,
                5.022850036621094,
                0
            ],
            "min": [
                -5.022850036621094,
                -5.022850036621094,
                -2
            ],
            "type": "VEC3"
        },
        "accessor_106": {
            "bufferView": "bufferView_165",
            "byteOffset": 448,
            "byteStride": 12,
            "componentType": 5126,
            "count": 16,
            "max": [
                0.8931419849395752,
                0.44977399706840515,
                0
            ],
            "min": [
                -0.8957089781761169,
                -0.8858669996261597,
                0
            ],
            "type": "VEC3"
        },
        "accessor_108": {
            "bufferView": "bufferView_165",
            "byteOffset": 640,
            "byteStride": 8,
            "componentType": 5126,
            "count": 16,
            "max": [
                1,
                1
            ],
            "min": [
                0,
                0
            ],
            "type": "VEC2"
        },
        "accessor_129": {
            "bufferView": "bufferView_164",
            "byteOffset": 72,
            "byteStride": 0,
            "componentType": 5123,
            "count": 6,
            "type": "SCALAR"
        },
        "accessor_131": {
            "bufferView": "bufferView_165",
            "byteOffset": 768,
            "byteStride": 12,
            "componentType": 5126,
            "count": 4,
            "max": [
                5.022850036621094,
                5.022850036621094,
                0
            ],
            "min": [
                -5.022850036621094,
                -5.022850036621094,
                0
            ],
            "type": "VEC3"
        },
        "accessor_133": {
            "bufferView": "bufferView_165",
            "byteOffset": 816,
            "byteStride": 12,
            "componentType": 5126,
            "count": 4,
            "max": [
                0,
                0,
                1
            ],
            "min": [
                0,
                0,
                1
            ],
            "type": "VEC3"
        },
        "accessor_135": {
            "bufferView": "bufferView_165",
            "byteOffset": 864,
            "byteStride": 8,
            "componentType": 5126,
            "count": 4,
            "max": [
                0.5,
                1
            ],
            "min": [
                0,
                0.0022829771041870117
            ],
            "type": "VEC2"
        },
        "accessor_156": {
            "bufferView": "bufferView_164",
            "byteOffset": 84,
            "byteStride": 0,
            "componentType": 5123,
            "count": 6,
            "type": "SCALAR"
        },
        "accessor_158": {
            "bufferView": "bufferView_165",
            "byteOffset": 896,
            "byteStride": 12,
            "componentType": 5126,
            "count": 4,
            "max": [
                5.022850036621094,
                5.022850036621094,
                -2
            ],
            "min": [
                -5.022850036621094,
                -5.022850036621094,
                -2
            ],
            "type": "VEC3"
        },
        "accessor_160": {
            "bufferView": "bufferView_165",
            "byteOffset": 944,
            "byteStride": 12,
            "componentType": 5126,
            "count": 4,
            "max": [
                0,
                0,
                -1
            ],
            "min": [
                0,
                0,
                -1
            ],
            "type": "VEC3"
        },
        "accessor_162": {
            "bufferView": "bufferView_165",
            "byteOffset": 992,
            "byteStride": 8,
            "componentType": 5126,
            "count": 4,
            "max": [
                0.4396899938583374,
                0.7783560156822205
            ],
            "min": [
                0.060309600085020065,
                0.12063699960708618
            ],
            "type": "VEC2"
        },
        "accessor_21": {
            "bufferView": "bufferView_164",
            "byteOffset": 96,
            "byteStride": 0,
            "componentType": 5123,
            "count": 24,
            "type": "SCALAR"
        },
        "accessor_23": {
            "bufferView": "bufferView_165",
            "byteOffset": 1024,
            "byteStride": 12,
            "componentType": 5126,
            "count": 16,
            "max": [
                5.022850036621094,
                5.022850036621094,
                0
            ],
            "min": [
                -5.022850036621094,
                -5.022850036621094,
                -2
            ],
            "type": "VEC3"
        },
        "accessor_25": {
            "bufferView": "bufferView_165",
            "byteOffset": 1216,
            "byteStride": 12,
            "componentType": 5126,
            "count": 16,
            "max": [
                0.8931419849395752,
                0.44977399706840515,
                0
            ],
            "min": [
                -0.8957089781761169,
                -0.8858669996261597,
                0
            ],
            "type": "VEC3"
        },
        "accessor_27": {
            "bufferView": "bufferView_165",
            "byteOffset": 1408,
            "byteStride": 8,
            "componentType": 5126,
            "count": 16,
            "max": [
                1,
                1
            ],
            "min": [
                0,
                0
            ],
            "type": "VEC2"
        },
        "accessor_48": {
            "bufferView": "bufferView_164",
            "byteOffset": 0,
            "byteStride": 0,
            "componentType": 5123,
            "count": 6,
            "type": "SCALAR"
        },
        "accessor_50": {
            "bufferView": "bufferView_165",
            "byteOffset": 0,
            "byteStride": 12,
            "componentType": 5126,
            "count": 4,
            "max": [
                5.022850036621094,
                5.022850036621094,
                0
            ],
            "min": [
                -5.022850036621094,
                -5.022850036621094,
                0
            ],
            "type": "VEC3"
        },
        "accessor_52": {
            "bufferView": "bufferView_165",
            "byteOffset": 48,
            "byteStride": 12,
            "componentType": 5126,
            "count": 4,
            "max": [
                0,
                0,
                1
            ],
            "min": [
                0,
                0,
                1
            ],
            "type": "VEC3"
        },
        "accessor_54": {
            "bufferView": "bufferView_165",
            "byteOffset": 96,
            "byteStride": 8,
            "componentType": 5126,
            "count": 4,
            "max": [
                1,
                1
            ],
            "min": [
                0.5,
                0.0022829771041870117
            ],
            "type": "VEC2"
        },
        "accessor_75": {
            "bufferView": "bufferView_164",
            "byteOffset": 12,
            "byteStride": 0,
            "componentType": 5123,
            "count": 6,
            "type": "SCALAR"
        },
        "accessor_77": {
            "bufferView": "bufferView_165",
            "byteOffset": 128,
            "byteStride": 12,
            "componentType": 5126,
            "count": 4,
            "max": [
                5.022850036621094,
                5.022850036621094,
                -2
            ],
            "min": [
                -5.022850036621094,
                -5.022850036621094,
                -2
            ],
            "type": "VEC3"
        },
        "accessor_79": {
            "bufferView": "bufferView_165",
            "byteOffset": 176,
            "byteStride": 12,
            "componentType": 5126,
            "count": 4,
            "max": [
                0,
                0,
                -1
            ],
            "min": [
                0,
                0,
                -1
            ],
            "type": "VEC3"
        },
        "accessor_81": {
            "bufferView": "bufferView_165",
            "byteOffset": 224,
            "byteStride": 8,
            "componentType": 5126,
            "count": 4,
            "max": [
                0.4396899938583374,
                0.7783560156822205
            ],
            "min": [
                0.060309600085020065,
                0.12063699960708618
            ],
            "type": "VEC2"
        }
    },
    "animations": {},
    "asset": {
        "generator": "collada2gltf@",
        "premultipliedAlpha": true,
        "profile": "WebGL 1.0.2",
        "version": 0.800000011920929
    },
    "bufferViews": {
        "bufferView_164": {
            "buffer": "model",
            "byteLength": 144,
            "byteOffset": 0,
            "target": 34963
        },
        "bufferView_165": {
            "buffer": "model",
            "byteLength": 1536,
            "byteOffset": 144,
            "target": 34962
        }
    },
    "buffers": {
        "model": {
            "byteLength": 1680,
            "type": "arraybuffer",
            "uri": "data:application/octet-stream;base64,"
        }
    },
    "materials": {
        "ID2": {
            "instanceTechnique": {
                "technique": "technique0",
                "values": {
                    "diffuse": [
                        0.800000011920929,
                        0.800000011920929,
                        0.800000011920929,
                        1
                    ],
                    "shininess": 64,
                    "specular": [
                        0.20000000298023224,
                        0.20000000298023224,
                        0.20000000298023224,
                        1
                    ]
                }
            },
            "name": "Mat."
        },
        "ID4": {
            "instanceTechnique": {
                "technique": "technique1",
                "values": {
                    "diffuse": [
                        1,
                        1,
                        1,
                        1
                    ]
                }
            },
            "name": "Mat"
        }
    },
    "meshes": {
        "ID17": {
            "name": "ID17",
            "primitives": [
                {
                    "attributes": {
                        "NORMAL": "accessor_52",
                        "POSITION": "accessor_50",
                        "TEXCOORD_0": "accessor_54"
                    },
                    "indices": "accessor_48",
                    "material": "ID2",
                    "primitive": 4
                }
            ]
        },
        "ID28": {
            "name": "ID28",
            "primitives": [
                {
                    "attributes": {
                        "NORMAL": "accessor_79",
                        "POSITION": "accessor_77",
                        "TEXCOORD_0": "accessor_81"
                    },
                    "indices": "accessor_75",
                    "material": "ID2",
                    "primitive": 4
                }
            ]
        },
        "ID39": {
            "name": "ID39",
            "primitives": [
                {
                    "attributes": {
                        "NORMAL": "accessor_106",
                        "POSITION": "accessor_104",
                        "TEXCOORD_0": "accessor_108"
                    },
                    "indices": "accessor_102",
                    "material": "ID4",
                    "primitive": 4
                }
            ]
        },
        "ID48": {
            "name": "ID48",
            "primitives": [
                {
                    "attributes": {
                        "NORMAL": "accessor_133",
                        "POSITION": "accessor_131",
                        "TEXCOORD_0": "accessor_135"
                    },
                    "indices": "accessor_129",
                    "material": "ID2",
                    "primitive": 4
                }
            ]
        },
        "ID59": {
            "name": "ID59",
            "primitives": [
                {
                    "attributes": {
                        "NORMAL": "accessor_160",
                        "POSITION": "accessor_158",
                        "TEXCOORD_0": "accessor_162"
                    },
                    "indices": "accessor_156",
                    "material": "ID2",
                    "primitive": 4
                }
            ]
        },
        "ID8": {
            "name": "ID8",
            "primitives": [
                {
                    "attributes": {
                        "NORMAL": "accessor_25",
                        "POSITION": "accessor_23",
                        "TEXCOORD_0": "accessor_27"
                    },
                    "indices": "accessor_21",
                    "material": "ID4",
                    "primitive": 4
                }
            ]
        }
    },
    "nodes": {
        "ID16": {
            "children": [],
            "matrix": [
                1,
                0,
                0,
                0,
                0,
                1,
                0,
                0,
                0,
                0,
                1,
                0,
                0,
                0,
                0,
                1
            ],
            "meshes": [
                "ID17"
            ],
            "name": "Couvercle_1"
        },
        "ID27": {
            "children": [],
            "matrix": [
                1,
                0,
                0,
                0,
                0,
                1,
                0,
                0,
                0,
                0,
                1,
                0,
                0,
                0,
                0,
                1
            ],
            "meshes": [
                "ID28"
            ],
            "name": "Couvercle_2"
        },
        "ID38": {
            "children": [
                "ID47",
                "ID58"
            ],
            "matrix": [
                1,
                0,
                0,
                0,
                0,
                1,
                0,
                0,
                0,
                0,
                0.009999999776482582,
                0,
                0.015157999470829964,
                0,
                0.02196039818227291,
                1
            ],
            "meshes": [
                "ID39"
            ],
            "name": "Extrusion_NURBS"
        },
        "ID47": {
            "children": [],
            "matrix": [
                1,
                0,
                0,
                0,
                0,
                1,
                0,
                0,
                0,
                0,
                1,
                0,
                0,
                0,
                0,
                1
            ],
            "meshes": [
                "ID48"
            ],
            "name": "Couvercle_1"
        },
        "ID58": {
            "children": [],
            "matrix": [
                1,
                0,
                0,
                0,
                0,
                1,
                0,
                0,
                0,
                0,
                1,
                0,
                0,
                0,
                0,
                1
            ],
            "meshes": [
                "ID59"
            ],
            "name": "Couvercle_2"
        },
        "ID6": {
            "children": [
                "ID7",
                "ID38"
            ],
            "matrix": [
                0.00000000020203472228530472,
                1.5,
                0.000000000000000000018141340684775137,
                0,
                1.5,
                -0.00000000020203472228530472,
                0.0000000001346897732235064,
                0,
                0.0000000001346897732235064,
                0,
                -1.5,
                0,
                -0.015157999470829964,
                -0.024573300033807755,
                -0.02196039818227291,
                1
            ],
            "name": "Neutre"
        },
        "ID7": {
            "children": [
                "ID16",
                "ID27"
            ],
            "matrix": [
                0.00000000004489664195972409,
                0,
                -1,
                0,
                0,
                1,
                0,
                0,
                0.009999999776482582,
                0,
                0.0000000000004489664120078257,
                0,
                -0.015157999470829964,
                0,
                -0.02196039818227291,
                1
            ],
            "meshes": [
                "ID8"
            ],
            "name": "Extrusion_NURBS.1"
        }
    },
    "programs": {
        "program_0": {
            "attributes": [
                "a_normal",
                "a_position"
            ],
            "fragmentShader": "model0FS",
            "vertexShader": "model0VS"
        },
        "program_1": {
            "attributes": [
                "a_normal",
                "a_position"
            ],
            "fragmentShader": "model1FS",
            "vertexShader": "model1VS"
        }
    },
    "scene": "defaultScene",
    "scenes": {
        "defaultScene": {
            "nodes": [
                "ID6"
            ]
        }
    },
    "shaders": {
        "model0FS": {
            "type": 35632,
            "uri": "data:text/plain;base64,"
        },
        "model0VS": {
            "type": 35633,
            "uri": "data:text/plain;base64,"
        },
        "model1FS": {
            "type": 35632,
            "uri": "data:text/plain;base64,"
        },
        "model1VS": {
            "type": 35633,
            "uri": "data:text/plain;base64,"
        }
    },
    "skins": {},
    "techniques": {
        "technique0": {
            "parameters": {
                "diffuse": {
                    "type": 35666
                },
                "modelViewMatrix": {
                    "semantic": "MODELVIEW",
                    "type": 35676
                },
                "normal": {
                    "semantic": "NORMAL",
                    "type": 35665
                },
                "normalMatrix": {
                    "semantic": "MODELVIEWINVERSETRANSPOSE",
                    "type": 35675
                },
                "position": {
                    "semantic": "POSITION",
                    "type": 35665
                },
                "projectionMatrix": {
                    "semantic": "PROJECTION",
                    "type": 35676
                },
                "shininess": {
                    "type": 5126
                },
                "specular": {
                    "type": 35666
                }
            },
            "pass": "defaultPass",
            "passes": {
                "defaultPass": {
                    "details": {
                        "commonProfile": {
                            "extras": {
                                "doubleSided": false
                            },
                            "lightingModel": "Blinn",
                            "parameters": [
                                "diffuse",
                                "modelViewMatrix",
                                "normalMatrix",
                                "projectionMatrix",
                                "shininess",
                                "specular"
                            ]
                        },
                        "type": "COLLADA-1.4.1/commonProfile"
                    },
                    "instanceProgram": {
                        "attributes": {
                            "a_normal": "normal",
                            "a_position": "position"
                        },
                        "program": "program_0",
                        "uniforms": {
                            "u_diffuse": "diffuse",
                            "u_modelViewMatrix": "modelViewMatrix",
                            "u_normalMatrix": "normalMatrix",
                            "u_projectionMatrix": "projectionMatrix",
                            "u_shininess": "shininess",
                            "u_specular": "specular"
                        }
                    },
                    "states": {
                        "enable": [
                            2884,
                            2929
                        ]
                    }
                }
            }
        },
        "technique1": {
            "parameters": {
                "diffuse": {
                    "type": 35666
                },
                "modelViewMatrix": {
                    "semantic": "MODELVIEW",
                    "type": 35676
                },
                "normal": {
                    "semantic": "NORMAL",
                    "type": 35665
                },
                "normalMatrix": {
                    "semantic": "MODELVIEWINVERSETRANSPOSE",
                    "type": 35675
                },
                "position": {
                    "semantic": "POSITION",
                    "type": 35665
                },
                "projectionMatrix": {
                    "semantic": "PROJECTION",
                    "type": 35676
                }
            },
            "pass": "defaultPass",
            "passes": {
                "defaultPass": {
                    "details": {
                        "commonProfile": {
                            "extras": {
                                "doubleSided": false
                            },
                            "lightingModel": "Blinn",
                            "parameters": [
                                "diffuse",
                                "modelViewMatrix",
                                "normalMatrix",
                                "projectionMatrix"
                            ]
                        },
                        "type": "COLLADA-1.4.1/commonProfile"
                    },
                    "instanceProgram": {
                        "attributes": {
                            "a_normal": "normal",
                            "a_position": "position"
                        },
                        "program": "program_1",
                        "uniforms": {
                            "u_diffuse": "diffuse",
                            "u_modelViewMatrix": "modelViewMatrix",
                            "u_normalMatrix": "normalMatrix",
                            "u_projectionMatrix": "projectionMatrix"
                        }
                    },
                    "states": {
                        "enable": [
                            2884,
                            2929
                        ]
                    }
                }
            }
        }
    }
}